<svg xmlns="http://www.w3.org/2000/svg" viewBox="0 0 32 32" fill="none">
  <defs>
    <linearGradient id="g" x1="0%" y1="0%" x2="100%" y2="100%">
      <stop offset="0%" stop-color="#FFD060"/>
      <stop offset="100%" stop-color="#E09010"/>
    </linearGradient>
  </defs>
  <rect width="32" height="32" rx="8" fill="#060A12"/>
  <rect width="32" height="32" rx="8" fill="none" stroke="url(#g)" stroke-width="1" stroke-opacity="0.6"/>
  <!-- Box body -->
  <rect x="5"  y="17" width="22" height="13" rx="2" fill="url(#g)"/>
  <!-- Lid -->
  <rect x="4"  y="11" width="24" height="7"  rx="2" fill="#FFD060"/>
  <!-- Ribbon -->
  <rect x="14" y="11" width="4"  height="19" rx="1" fill="#C07800" opacity="0.55"/>
  <rect x="4"  y="14" width="24" height="3"  rx="0.5" fill="#C07800" opacity="0.45"/>
  <!-- Bow -->
  <path d="M16 11 C12 5, 5 5, 7.5 10 C9 13, 14.5 12, 16 11Z" fill="#FFE080"/>
  <path d="M16 11 C20 5, 27 5, 24.5 10 C23 13, 17.5 12, 16 11Z" fill="url(#g)"/>
  <circle cx="16" cy="11" r="2.2" fill="#FFE080"/>
</svg>
